<?xml version="1.0" standalone="no"?>
<!DOCTYPE svg PUBLIC "-//W3C//DTD SVG 20010904//EN"
 "http://www.w3.org/TR/2001/REC-SVG-20010904/DTD/svg10.dtd">
<svg version="1.0" xmlns="http://www.w3.org/2000/svg"
 width="285.000000pt" height="285.000000pt" viewBox="0 0 285.000000 285.000000"
 preserveAspectRatio="xMidYMid meet">
<metadata>
Created by potrace 1.14, written by Peter Selinger 2001-2017
</metadata>
<g transform="translate(0.000000,285.000000) scale(0.100000,-0.100000)"
fill="#000000" stroke="none">
<path d="M1079 2266 c-47 -7 -108 -19 -137 -25 -28 -7 -55 -10 -61 -7 -5 3
-11 2 -13 -2 -1 -5 -34 -19 -73 -31 -137 -43 -331 -133 -403 -188 -17 -13 -37
-21 -44 -17 -6 4 -8 3 -5 -3 9 -14 -40 -46 -55 -37 -6 4 -8 3 -4 -4 3 -6 -10
-23 -31 -39 -21 -15 -41 -31 -44 -35 -3 -5 -20 -19 -39 -33 -19 -14 -30 -25
-25 -25 5 0 -1 -7 -13 -16 -12 -8 -22 -19 -22 -25 0 -5 20 -30 45 -54 l44 -45
33 28 c18 15 35 30 36 35 2 4 8 5 13 1 5 -3 9 2 9 10 0 9 6 16 14 16 8 0 16 4
18 8 6 17 91 71 101 65 5 -3 7 -1 4 4 -4 6 0 16 8 23 8 7 15 9 15 6 0 -4 10 2
22 14 12 11 28 20 35 20 7 0 13 5 13 11 0 5 4 8 9 4 5 -3 13 0 16 6 4 5 14 8
22 5 8 -3 11 -2 8 4 -3 5 8 16 25 25 16 8 30 12 30 9 0 -4 8 0 18 8 9 9 49 27
87 42 39 15 79 31 90 36 23 10 155 46 200 55 151 28 525 28 608 0 7 -2 29 -6
49 -9 21 -3 43 -7 50 -8 8 -2 17 20 25 61 7 35 12 65 10 67 -3 3 -13 5 -137
30 -104 21 -439 27 -551 10z"/>
<path d="M1380 1863 c-50 -7 -146 -46 -185 -77 -46 -36 -109 -99 -107 -106 1
-3 -5 -13 -13 -22 -8 -10 -13 -18 -11 -18 2 0 -6 -28 -19 -62 -12 -35 -23 -88
-24 -118 -2 -30 -5 -59 -8 -64 -4 -5 -1 -6 5 -2 11 6 17 -27 15 -81 -1 -7 3
-10 8 -7 5 3 9 1 9 -5 0 -5 5 -22 11 -38 6 -15 10 -29 9 -31 -1 -2 8 -12 19
-21 12 -10 21 -22 21 -25 0 -11 80 -86 91 -86 5 0 9 -5 9 -11 0 -5 5 -7 10 -4
6 3 10 2 10 -3 0 -17 134 -55 200 -57 98 -3 200 28 258 79 12 11 22 16 22 12
0 -5 18 14 41 40 50 60 98 155 105 209 6 43 7 131 1 155 -14 60 -31 102 -56
142 -16 25 -26 50 -23 54 4 4 2 4 -4 1 -7 -4 -17 0 -24 8 -7 8 -9 15 -4 16 5
0 -1 4 -14 10 -15 5 -21 13 -16 21 4 7 4 10 -1 6 -5 -5 -22 3 -39 16 -65 49
-202 81 -296 69z m-80 -216 c0 -5 4 -6 9 -2 5 3 22 -6 38 -19 23 -20 28 -32
28 -69 0 -60 -37 -97 -96 -97 -22 0 -38 4 -35 9 3 5 -2 8 -12 7 -9 0 -16 5
-14 12 1 6 -4 12 -12 12 -8 0 -17 15 -20 35 -8 38 11 85 43 107 20 14 71 18
71 5z"/>
<path d="M2674 1207 c-7 -7 -29 -25 -49 -42 -21 -16 -45 -37 -56 -46 -34 -29
-64 -50 -69 -48 -3 2 -18 -9 -34 -24 -16 -15 -33 -27 -37 -27 -5 0 -18 -9 -29
-20 -12 -12 -25 -18 -30 -15 -6 4 -10 2 -10 -2 0 -13 -99 -65 -111 -58 -5 4
-8 1 -7 -6 2 -7 -1 -14 -7 -14 -5 -1 -28 -9 -49 -18 -22 -10 -46 -15 -53 -12
-8 2 -12 1 -9 -4 3 -4 -14 -14 -37 -21 -23 -8 -46 -16 -52 -19 -5 -3 -14 -6
-20 -8 -33 -7 -54 -12 -90 -21 -22 -6 -58 -14 -80 -17 -22 -4 -51 -9 -65 -12
-14 -3 -101 -7 -194 -9 -129 -3 -172 -1 -178 8 -6 10 -8 10 -8 0 0 -7 -4 -11
-9 -8 -5 3 -33 8 -63 11 -30 3 -83 11 -119 19 -35 7 -65 13 -66 12 -1 0 -4
-19 -7 -41 -4 -23 -8 -51 -11 -63 -5 -26 0 -30 62 -42 47 -10 62 -13 173 -30
61 -9 430 -9 430 0 0 6 174 35 198 33 6 0 12 3 12 8 0 5 8 9 18 9 10 0 51 11
91 25 41 13 78 22 84 18 5 -3 7 -2 4 4 -4 6 13 16 36 24 23 7 56 22 74 32 18
10 38 15 44 11 7 -4 9 -3 6 3 -8 13 20 26 36 16 7 -3 9 -2 4 2 -4 5 23 26 60
48 38 21 71 44 75 51 4 6 8 7 8 3 0 -5 7 -2 15 5 8 7 20 18 27 23 8 6 37 29
66 53 30 25 57 40 64 36 6 -4 8 -3 5 3 -4 6 7 25 23 43 17 18 30 28 30 24 0
-5 5 -2 10 6 7 11 1 22 -20 42 -17 15 -30 32 -30 37 0 6 -7 11 -15 11 -8 0
-15 5 -15 10 0 13 -12 12 -26 -3z"/>
</g>
</svg>
